<mxfile host="app.diagrams.net" modified="2021-06-11T11:23:27.611Z" agent="5.0 (Windows NT 10.0; Win64; x64) AppleWebKit/537.36 (KHTML, like Gecko) Chrome/91.0.4472.77 Safari/537.36" etag="OWG53lpnuvnGFle6uhh4" version="14.7.7" type="github">
  <diagram id="LNMG3sTzRvZ35h2c9BiK" name="Page-1">
    <mxGraphModel dx="1038" dy="547" grid="1" gridSize="10" guides="1" tooltips="1" connect="1" arrows="1" fold="1" page="1" pageScale="1" pageWidth="850" pageHeight="1100" background="#114B5F" math="0" shadow="0">
      <root>
        <mxCell id="0" />
        <mxCell id="1" parent="0" />
        <mxCell id="hODOwLh5K1UUTg0OSGgw-2" value="&lt;font color=&quot;#e6e6e6&quot;&gt;React&lt;/font&gt;" style="html=1;fillColor=#F45B69;strokeColor=#028090;fontColor=#E4FDE1;" parent="1" vertex="1">
          <mxGeometry x="80" y="80" width="110" height="50" as="geometry" />
        </mxCell>
        <mxCell id="hODOwLh5K1UUTg0OSGgw-3" value="" style="endArrow=none;dashed=1;html=1;labelBackgroundColor=#114B5F;strokeColor=#028090;fontColor=#E4FDE1;" parent="1" edge="1">
          <mxGeometry width="50" height="50" relative="1" as="geometry">
            <mxPoint x="50" y="560" as="sourcePoint" />
            <mxPoint x="800" y="50" as="targetPoint" />
          </mxGeometry>
        </mxCell>
      </root>
    </mxGraphModel>
  </diagram>
</mxfile>
